<?xml version="1.0" encoding="UTF-8"?>
<svg id="Layer_1" data-name="Layer 1" xmlns="http://www.w3.org/2000/svg" viewBox="0 0 1183.77 1161.57">
  <defs>
    <style>
      .cls-1 {
        fill: #ffc24c;
      }
    </style>
  </defs>
  <path class="cls-1" d="m908.35,633.27c0,.94-.26,1.88-.65,4.46-78.32-4.04-121.99,35.43-136.06,111.94h-290.46c-4.88-42.58-23.44-76.06-60.89-97.22-8.51-4.81-17.91-9.12-27.4-10.77-8.89-1.54-10.78-5.16-10.72-13.1.34-44.54.32-89.07.43-133.61,2.89-1.1,5.79-3.15,8.69-3.17,39.94-.21,79.89-.17,119.83-.03,2.14.01,4.28,1.47,6.42,2.25,21.78-3.21,40.78-10.55,51.85-31.73,15.13-28.96,11.38-55.67-7.68-80.94,48.78-69.05,97.66-138.25,146.54-207.45-1.02-.9-2.05-1.8-3.07-2.69-5.55,5.24-11.44,10.17-16.59,15.77-51.62,56.09-103.05,112.36-154.81,168.33-3.18,3.43-8.6,6.72-13.02,6.77-45.47.49-90.94.3-137.24.3-.46-3.74-1.18-6.9-1.19-10.05-.05-91.51-.18-183.01.04-274.51.09-39.31,32.97-73.6,71.32-75.21,4.99-.87,9.98-2.5,14.98-2.51,118.18-.14,236.37-.14,354.55.01,5.54,0,11.07,1.67,16.61,2.56,36.37,3.34,68.44,36.13,68.48,71.71.23,186.29.08,372.59.04,558.89Z"/>
  <path class="cls-1" d="m520.4,466.08c-5.51.86-11.01,2.44-16.52,2.46-72.94.29-145.88.35-218.82.47-.18,61.3-.1,122.6-.91,183.89-.09,7.14-3.44,15.72-8.16,21.09-42.77,48.66-42.11,116.71,1.89,163.5,4.03,4.28,5.75,10.73,8.34,15.79-31.43,6.92-60.3,13.29-90.3,19.9v-101.73h-20.68c0,33.55-.38,66.94.23,100.31.18,10.24-3.48,16.21-11.46,22.46-17.66,13.83-34.47,28.99-35.1,54.19.09,67.13.21,134.27.13,201.4-.01,2.94-1.9,5.88-2.91,8.82-21.39-.14-38.14-15.52-40.36-37.03-.86-5.99-2.47-11.98-2.47-17.97-.08-193.83-.01-387.66.02-581.49,0-6.22-.21-12.44-.31-18.65-5.57,0-11.14,0-16.71.01-.1,75-.15,149.99-.41,224.99,0,5.46-1.56,10.92-2.39,16.38,1.35,20.15-12.12,31.85-28.73,34.18-14.39,2.01-26.56-8.27-32.3-26.23-.56-1.77-1.44-3.43-2.16-5.14-.14-82.8-.3-165.59-.31-248.38,0-2.61,1.6-5.21,2.45-7.81-1.83-21.72,4.8-41.16,16.8-58.79,15.93-23.41,36.9-38.79,66.56-39.13,5.01-.85,10.03-2.44,15.05-2.44,134.94-.14,269.88-.13,404.81-.01,5.05.01,10.1,1.51,15.15,2.32,22.88,2.93,29.73,19.05,30.58,37.77.79,17.36-13.87,32.04-31,34.87Z"/>
  <path class="cls-1" d="m1109.58,1146.56c0,4.07-1.59,8.15-2.44,12.22l-.71-.32c-4.25,1.04-8.49,2.97-12.74,2.98-135.03.16-270.07.16-405.1.01-4.36-.01-8.72-1.81-13.08-2.77l-.24.22c-.87-3.53-2.49-7.05-2.49-10.58-.16-62.08-.15-124.16-.01-186.24,0-3.61,1.47-7.22,2.26-10.83,1.25-28,22.2-40.29,42.84-51.69,25.49-14.08,53.3-21.25,82.51-23.13,10.21-.66,20.31-3.09,30.45-4.7,36.77-.19,73.54-.42,110.31-.42,2.56,0,5.11,1.74,7.67,2.67,45.33,3,90.27,7.88,129.02,34.77,14.99,10.4,28.27,22.76,29.45,42.99.8,4.1,2.3,8.18,2.31,12.28.15,60.84.15,121.69-.01,182.54Z"/>
  <path class="cls-1" d="m580.55,1146.86c-.01,4.01-1.62,8.02-2.49,12.03l-.28-.25c-4.35.98-8.7,2.8-13.05,2.81-135.03.15-270.07.15-405.11-.01-4.25-.01-8.5-1.94-12.75-2.97l-.68.32c-.86-3.59-2.44-7.19-2.45-10.78-.15-61.82-.15-123.63,0-185.45,0-3.61,1.51-7.22,2.32-10.83,1.71-22.45,17.05-35.4,33.84-46.47,27.76-18.31,58.92-26.71,91.98-28.64,8.93-.52,17.82-1.79,26.72-2.71,2.09-.87,4.17-2.49,6.26-2.5,36.79-.16,73.59-.16,110.38-.03,1.57.01,3.14,1.62,4.71,2.49,42.06,2.15,83.47,7.71,120.63,29.22,18.58,10.76,35.82,23.83,37.69,48.24.8,4.08,2.28,8.16,2.29,12.24.14,61.1.15,122.19-.01,183.29Z"/>
  <path class="cls-1" d="m362.41,655.48c56.2-.9,101.04,44.78,99.78,99.84-1.38,60.72-43.11,101.7-107.11,100.24-49.04-1.12-93.56-42.46-93.38-102.07.14-47.98,41.27-100.42,100.7-98.02Z"/>
  <path class="cls-1" d="m988.93,755.89c5.27,52.6-42.53,101.03-100.78,100.1-52.79-.85-96.11-41.7-97.9-100.93-1.68-55.68,53.1-101.24,100.76-100.43,45.83.77,103.57,42.23,97.92,101.26Z"/>
  <path class="cls-1" d="m258.65,301.24c2.65,38.65-32.9,75.89-77.23,75.24-39.32-.58-74.92-33.77-74.54-75.89.38-40.93,30.58-76.05,76.58-76.58,40.89-.47,79.32,38.02,75.19,77.23Z"/>
  <path class="cls-1" d="m.3,1048.26v-26.66h62.02v26.66H.3Z"/>
  <path class="cls-1" d="m1127.47,1048.78v-27.19h56.29v27.19h-56.29Z"/>
  <path class="cls-1" d="m651.44,1048.91h-52.7v-27.51h52.7v27.51Z"/>
  <path class="cls-1" d="m712.66,165.13c-1.02,2.04-2.03,4.07-3.05,6.11-.82-.7-1.63-1.4-2.45-2.1,1.37-1.61,2.74-3.21,4.1-4.82.47.27.93.54,1.4.81Z"/>
</svg>